#define destroy_width 16
#define destroy_height 16
static char destroy_bits[] = {
   0x00, 0x00, 0x00, 0x00, 0x00, 0x00, 0x00, 0x00, 0x10, 0x00, 0xe0, 0x7f,
   0x20, 0x02, 0xf0, 0x01, 0x78, 0x00, 0x1c, 0x00, 0x1c, 0x00, 0x1c, 0x00,
   0x1c, 0x00, 0x08, 0x00, 0x00, 0x00, 0x00, 0x00};
