#define die_width 15
#define die_height 15
static char die_bits[] = {
   0x00, 0x00, 0x2e, 0x3d, 0x22, 0x15, 0xc2, 0x14, 0xc6, 0x14, 0x22, 0x15,
   0x22, 0x15, 0x2e, 0x15, 0x00, 0x00, 0x00, 0x02, 0x00, 0x0c, 0xfe, 0x3f,
   0xfe, 0x3f, 0x00, 0x0c, 0x00, 0x02};
