#define foc_width 15
#define foc_height 15
static char foc_bits[] = {
   0x00, 0x80, 0x00, 0x80, 0x00, 0x80, 0x00, 0x80, 0xfc, 0x9f, 0x54, 0x95,
   0xfc, 0x9f, 0x54, 0x95, 0xfc, 0x9f, 0x04, 0x90, 0xfc, 0x9f, 0x00, 0x80,
   0x00, 0x80, 0x00, 0x80, 0x00, 0x80};
