#define ic_width 15
#define ic_height 15
static char ic_bits[] = {
   0x00, 0x80, 0x00, 0x80, 0x7c, 0x9f, 0x7c, 0x9f, 0x7c, 0x9f, 0x7c, 0x9f,
   0x7c, 0x9f, 0x00, 0x80, 0x7c, 0x9f, 0x7c, 0x9f, 0x7c, 0x9f, 0x7c, 0x9f,
   0x7c, 0x9f, 0x00, 0x80, 0x00, 0x80};
