#define g1_width 16
#define g1_height 16
static char g1_bits[] = {
   0x00, 0x00, 0x00, 0x00, 0x80, 0x00, 0xc0, 0x01, 0xe0, 0x03, 0x80, 0x00,
   0x80, 0x00, 0x9e, 0x3c, 0x9e, 0x3c, 0x80, 0x00, 0x80, 0x00, 0xe0, 0x03,
   0xc0, 0x01, 0x80, 0x00, 0x00, 0x00, 0x00, 0x00};
