#define res_width 15
#define res_height 15
static char res_bits[] = {
   0x00, 0x80, 0xfe, 0xbf, 0x00, 0xa0, 0x00, 0xa0, 0xaa, 0xa6, 0x00, 0xa4,
   0x00, 0xa0, 0x00, 0xa4, 0x7e, 0xa0, 0x40, 0xa4, 0x40, 0xa0, 0x40, 0xa4,
   0x40, 0xa0, 0x40, 0xa4, 0x00, 0x80};
