#define resize_width 16
#define resize_height 16
static char resize_bits[] = {
   0x00, 0x00, 0x00, 0x00, 0x00, 0x3c, 0x00, 0x38, 0x00, 0x38, 0x00, 0x24,
   0x00, 0x02, 0x00, 0x01, 0x80, 0x00, 0x40, 0x00, 0x20, 0x00, 0x12, 0x00,
   0x0e, 0x00, 0x0e, 0x00, 0x1e, 0x00, 0x00, 0x00};
