#define titlebold_width 16
#define titlebold_height 16
static char titlebold_bits[] = {
   0x00, 0x00, 0x00, 0x00, 0xff, 0xff, 0x00, 0x00, 0xff, 0xff, 0x00, 0x00,
   0xff, 0xff, 0x00, 0x00, 0xff, 0xff, 0x00, 0x00, 0xff, 0xff, 0x00, 0x00,
   0xff, 0xff, 0x00, 0x00, 0xff, 0xff, 0x00, 0x00};
